<svg width="45" height="52" viewBox="0 0 45 52" fill="none" xmlns="http://www.w3.org/2000/svg">
<path fill-rule="evenodd" clip-rule="evenodd" d="M30.2683 8.86751C30.0024 11.9653 27.4039 14.3966 24.2373 14.3966C21.0201 14.3966 18.3891 11.8872 18.1953 8.71875C18.3851 8.75124 18.6043 8.79741 18.8551 8.86366C20.0731 9.18598 20.1452 9.83147 21.0409 9.90286C21.9365 9.97439 24.422 9.00801 25.1792 8.86295C25.9364 8.71804 28.5173 8.77845 30.2683 8.86751Z" fill="#EDBC3B"/>
<path fill-rule="evenodd" clip-rule="evenodd" d="M24.2372 2.28931C27.4221 2.28931 30.0322 4.74816 30.2728 7.87117C28.0986 7.85236 25.9376 7.59231 24.8391 7.825C23.7408 8.05769 21.3827 8.96309 20.9173 8.89156C20.4519 8.82002 19.4165 7.90821 19.0344 7.78866C18.6522 7.66897 18.5385 7.70089 18.2188 7.69049C18.5443 4.65454 21.1142 2.28931 24.2372 2.28931Z" fill="#3C7121"/>
<path fill-rule="evenodd" clip-rule="evenodd" d="M27.6124 7.77376C26.4672 7.72103 25.4755 7.69054 24.8391 7.82505C23.7408 8.05774 21.3827 8.96314 20.9173 8.89161C20.4519 8.82008 19.4165 7.90827 19.0344 7.78872C18.6522 7.66902 18.5385 7.70094 18.2188 7.69054C18.2889 7.03408 18.4644 6.40939 18.7276 5.83301C19.2384 6.46411 20.1465 7.44873 20.8744 7.49689C21.9495 7.56828 24.0988 6.9235 24.9944 6.88788C25.6171 6.86309 26.893 7.42721 27.6124 7.77376Z" fill="#365C23"/>
<path fill-rule="evenodd" clip-rule="evenodd" d="M28.9365 8.81177C28.5478 11.7158 27.0387 12.7219 24.769 14.2942C27.751 14.0985 30.0135 11.8328 30.2683 8.86762C29.8582 8.84682 29.4032 8.82673 28.9365 8.81177Z" fill="#AD881E"/>
<path fill-rule="evenodd" clip-rule="evenodd" d="M23.1616 0.0875127C26.5219 1.64282 29.2063 2.64768 30.9384 6.07291C31.7163 0.881766 27.4001 -0.371456 23.1616 0.0875127Z" fill="#3C7121"/>
<path fill-rule="evenodd" clip-rule="evenodd" d="M28.7103 14.3618C25.4794 18.4019 24.9069 21.0595 19.8612 23.7841C16.2781 25.719 14.4511 26.7942 14.4511 26.7942C14.4511 26.7942 13.198 24.0708 13.7348 22.5663C15.1439 18.6171 25.0095 15.7879 28.7103 14.3618Z" fill="#2C6671"/>
<path fill-rule="evenodd" clip-rule="evenodd" d="M24.3491 20.3135C23.2846 21.5282 21.9605 22.6506 19.8612 23.7842C16.2781 25.7191 14.451 26.7942 14.451 26.7942C14.451 26.7942 13.9343 25.6711 13.7068 24.4693C13.9512 24.893 14.2749 25.3643 14.5427 25.4312C16.1967 25.8446 22.5097 21.731 24.3491 20.3135Z" fill="#154C51"/>
<path fill-rule="evenodd" clip-rule="evenodd" d="M17.0598 26.6029C17.0598 26.6029 19.7474 26.6392 21.3592 27.6063C22.9711 28.5735 23.6159 29.2183 23.6159 29.2183C23.6159 29.2183 26.375 27.9288 27.9153 25.6C29.4557 23.2712 31.1754 19.688 31.1754 19.688C25.8173 21.7678 21.9911 23.7781 17.0598 26.6029Z" fill="#2C6671"/>
<path fill-rule="evenodd" clip-rule="evenodd" d="M21.3735 27.615C22.975 28.5775 23.6159 29.2185 23.6159 29.2185C23.6159 29.2185 26.375 27.9289 27.9154 25.6001C28.3709 24.9112 28.8421 24.1124 29.2803 23.3291C28.8286 23.6671 28.2955 24.0936 27.9732 24.4425C27.3284 25.1412 26.3073 26.3995 25.5008 26.9189C24.6942 27.4382 24.3354 27.7612 23.5477 27.7787C23.0595 27.7898 22.0548 27.7105 21.3735 27.615Z" fill="#154C51"/>
<path fill-rule="evenodd" clip-rule="evenodd" d="M22.1934 29.4328C15.0244 23.888 10.4111 31.976 5.42654 32.2262C4.35158 32.2802 2.10205 31.9356 1.78871 31.8818C1.20377 31.781 1.14136 32.2035 1.57425 32.364C2.79299 32.817 4.39304 33.1641 3.0861 34.8163C2.68242 35.3265 1.17784 36.8838 0.855381 37.1346C0.533063 37.3856 0.228271 37.6098 0.228271 37.6098C0.228271 37.6098 3.18228 36.3898 4.66934 35.1712C11.0044 29.9799 14.6039 30.1542 22.4592 29.7401L22.1934 29.4328Z" fill="#EDBC3B"/>
<path fill-rule="evenodd" clip-rule="evenodd" d="M22.1933 29.4329C21.5038 28.8998 20.8382 28.4937 20.1934 28.1934C19.7339 28.5633 18.9247 29.0741 17.8061 29.2495C14.3159 29.7968 10.9328 30.4683 8.17261 32.6683C12.6007 30.027 16.163 30.0724 22.4592 29.7403L22.1933 29.4329Z" fill="#AD881E"/>
<path fill-rule="evenodd" clip-rule="evenodd" d="M25.5093 20.8059C25.5093 20.8059 27.838 16.8295 29.2712 15.3607C30.7043 13.8917 37.8688 10.0584 37.8688 10.0584C37.8688 10.0584 38.0084 8.0078 37.794 7.39807C37.5795 6.78849 37.2923 6.03584 37.2923 5.51646C37.2923 4.99721 37.4001 4.67475 37.4001 4.67475C37.4001 4.67475 37.9728 6.46674 38.6539 6.48427C39.335 6.50179 41.1088 5.76739 41.8074 4.96145C42.5062 4.15551 43.437 2.66846 43.437 2.66846C43.437 2.66846 42.2885 6.59156 41.3928 7.66653C40.4972 8.74149 32.7023 17.5776 31.8781 18.1152C31.0539 18.6527 25.5093 20.8059 25.5093 20.8059Z" fill="#EDBC3B"/>
<path fill-rule="evenodd" clip-rule="evenodd" d="M39.5449 9.78931C36.9218 12.7674 32.4884 17.7174 31.8781 18.1153C31.1392 18.5969 26.6071 20.3771 25.677 20.7404C27.0093 19.9599 29.5455 18.4584 30.0168 18.0658C30.4834 17.6771 36.3407 12.5796 39.5449 9.78931Z" fill="#AD881E"/>
<path fill-rule="evenodd" clip-rule="evenodd" d="M16.5433 31.0193C21.2021 31.1472 23.5653 30.2776 24.9328 29.8909C26.1489 30.0502 26.9834 30.3882 31.6696 32.9892C28.4094 36.0512 27.699 36.9975 23.2885 37.7522L22.751 43.8429C22.751 43.8429 19.884 43.6998 17.1257 40.0452C14.3672 36.3905 12.3965 33.2376 12.3965 33.2376L16.5433 31.0193Z" fill="#863A20"/>
<path fill-rule="evenodd" clip-rule="evenodd" d="M11.6029 33.6868C11.6029 33.6868 15.4389 39.2386 15.797 39.6689C16.1552 40.0991 17.1937 41.2457 17.1937 41.2457L12.5402 51.42C12.5402 51.42 7.84621 49.7367 5.76824 48.518C3.69041 47.2994 0 44.2185 0 44.2185C4.07258 39.4408 6.58857 37.3166 11.6029 33.6868Z" fill="#352B2A"/>
<path fill-rule="evenodd" clip-rule="evenodd" d="M11.6029 33.6868L12.028 34.3016C4.03684 40.9837 6.49683 44.5078 13.5229 49.2719L13.3279 49.6977C11.3481 48.6408 3.64299 44.47 1.53125 42.4669C4.77524 38.8584 7.24634 36.841 11.6029 33.6868Z" fill="#2B2527"/>
<path fill-rule="evenodd" clip-rule="evenodd" d="M24.866 38.3749C27.3949 37.7062 30.4504 35.3696 32.1747 33.4307C36.8499 36.5473 41.6269 40.3209 45.0002 44.8589C45.0002 44.8589 40.8087 48.2978 37.7637 49.6594C34.7186 51.0211 32.1747 51.8451 32.1747 51.8451L24.866 38.3749Z" fill="#352B2A"/>
<path fill-rule="evenodd" clip-rule="evenodd" d="M24.866 38.3749C25.2228 38.2807 25.5901 38.1521 25.9632 37.9973C27.2494 39.9621 31.8049 47.3678 33.9725 48.0618C34.8681 48.3485 36.6418 48.2237 36.6418 48.2237L31.3122 50.2561L24.866 38.3749Z" fill="#2B2527"/>
</svg>
